<svg width="20" height="28" viewBox="0 0 20 28" fill="none" xmlns="http://www.w3.org/2000/svg">
<circle cx="9.63636" cy="15.234" r="8.88636" stroke="#E3E2E0" stroke-width="1.5"/>
<path d="M6.23835 15.15C6.23835 14.3567 6.39702 13.666 6.71435 13.078C7.03169 12.4807 7.47035 12.0187 8.03035 11.692C8.59969 11.3653 9.24835 11.202 9.97635 11.202C10.919 11.202 11.6937 11.4307 12.3004 11.888C12.9164 12.3453 13.3224 12.98 13.5184 13.792H12.1464C12.0157 13.3253 11.759 12.9567 11.3764 12.686C11.003 12.4153 10.5364 12.28 9.97635 12.28C9.24835 12.28 8.66035 12.532 8.21235 13.036C7.76435 13.5307 7.54035 14.2353 7.54035 15.15C7.54035 16.074 7.76435 16.788 8.21235 17.292C8.66035 17.796 9.24835 18.048 9.97635 18.048C10.5364 18.048 11.003 17.9173 11.3764 17.656C11.7497 17.3947 12.0064 17.0213 12.1464 16.536H13.5184C13.313 17.32 12.9024 17.95 12.2864 18.426C11.6704 18.8927 10.9004 19.126 9.97635 19.126C9.24835 19.126 8.59969 18.9627 8.03035 18.636C7.47035 18.3093 7.03169 17.8473 6.71435 17.25C6.39702 16.6527 6.23835 15.9527 6.23835 15.15Z" fill="#E3E2E0"/>
</svg>
